# xmcd CD database file
#
# Track frame offsets:
#	150
#	14335
#	37287
#	51512
#	66947
#	89617
#	106807
#	125270
#	138237
#	153247
#	168637
#	182542
#	197340
#	211955
#	232375
#	238482
#	261017
#
# Disc length: 3670 seconds
#
# Revision: 47
# Processed by: cddbd v1.5.2PL0 Copyright (c) Steve Scherf et al.
# Submitted via: CDex 1.70beta3
#
DISCID=fa0e5411
DTITLE=Various Artist - image ～emotional and relaxing～
DYEAR=2000
DGENRE=Instrumental
TTITLE0=霧の浅瀬 - カール・ジェンキンズ
TTITLE1=エトピリカ - 葉加瀬太郎
TTITLE2=リベルタンゴ - ヨーヨー・マ
TTITLE3=異人回廊 - 盤古2001
TTITLE4=パリは燃えているか - 加古隆
TTITLE5=地球に乾杯 - 羽毛田丈史
TTITLE6=放課後の音楽室 - ゴンチチ
TTITLE7=ローズ - ジェームズ・ホーナー
TTITLE8=ニューシネマ・パラダイス - 古澤巌＆アサド兄弟
TTITLE9=ピエ・イエズ - シャルロット・チャーチ
TTITLE10=愛を奏でて - エンニオ・モリコーネ
TTITLE11=黄昏のワルツ - 加古隆
TTITLE12=風笛 - 大島ミチル featuring 宮元文昭
TTITLE13=アヴェ・ムンディ - ロドリーゴ・レアン＆ヴォックス・アンサンブル
TTITLE14=BEFORE LONG - 坂本龍一
TTITLE15=情熱大陸 - 葉加瀬太郎＆小松亮太
TTITLE16=ソング・オブ・ライフ - 鳥山雄司
EXTD=YEAR: 2000
EXTT0=
EXTT1=
EXTT2=
EXTT3=
EXTT4=
EXTT5=
EXTT6=
EXTT7=
EXTT8=
EXTT9=
EXTT10=
EXTT11=
EXTT12=
EXTT13=
EXTT14=
EXTT15=
EXTT16=
PLAYORDER=
